<?xml version="1.0" encoding="utf-8"?>
<!-- Generator: Adobe Illustrator 18.0.0, SVG Export Plug-In . SVG Version: 6.00 Build 0)  -->
<!DOCTYPE svg PUBLIC "-//W3C//DTD SVG 1.1//EN" "http://www.w3.org/Graphics/SVG/1.1/DTD/svg11.dtd">
<svg version="1.1" id="Layer_1" xmlns:sketch="http://www.bohemiancoding.com/sketch/ns"
	 xmlns="http://www.w3.org/2000/svg" xmlns:xlink="http://www.w3.org/1999/xlink" x="0px" y="0px" viewBox="0 0 33 25"
	 enable-background="new 0 0 33 25" xml:space="preserve">
<title>1.4 Profile—About</title>
<desc>Created with Sketch.</desc>
<g id="noun_64348" transform="translate(444.000000, 558.000000)" sketch:type="MSLayerGroup">
	<path id="Shape" sketch:type="MSShapeGroup" fill="#00B4B1" d="M-412.6-553.5h-8.1v-3.6c0-0.5-0.4-0.9-0.9-0.9h-12.6
		c-0.5,0-0.9,0.4-0.9,0.9v3.6h-8.1c-0.5,0-0.9,0.4-0.9,0.9v18.7c0,0.5,0.4,0.9,0.9,0.9h30.6c0.5,0,0.9-0.4,0.9-0.9v-18.7
		C-411.8-553.1-412.1-553.5-412.6-553.5L-412.6-553.5z M-433.3-556.3h10.8v2.6h-10.8V-556.3L-433.3-556.3z M-438.8-534.9h-3.6v-16.9
		h3.6V-534.9L-438.8-534.9z M-419-534.9h-17.9v-16.9h17.9V-534.9L-419-534.9z M-413.5-534.9h-3.6v-16.9h3.6V-534.9L-413.5-534.9z"/>
</g>
</svg>
